<?xml version="1.0" encoding="utf-8"?>
<!-- Generator: Adobe Illustrator 19.0.0, SVG Export Plug-In . SVG Version: 6.00 Build 0)  -->
<svg version="1.1" id="Layer_1" xmlns="http://www.w3.org/2000/svg" xmlns:xlink="http://www.w3.org/1999/xlink" x="0px" y="0px"
	 viewBox="121 -57 542.7 414" style="enable-background:new 121 -57 542.7 414;" xml:space="preserve">
<style type="text/css">
	.st0{fill:#FFFFFF;}
	.st1{fill:#2458A6;}
	.st2{fill:none;stroke:#494949;stroke-width:8;stroke-miterlimit:10;}
	.st3{fill:#D4E6FC;}
	.st4{fill:#F2644B;}
	.st5{fill:none;stroke:#8E8E8E;stroke-width:5;stroke-linecap:round;stroke-linejoin:round;stroke-miterlimit:10;}
	.st6{fill:#474747;}
	.st7{fill:none;}
	.st8{fill:none;stroke:#3D3D3D;stroke-width:13;stroke-miterlimit:10;}
	.st9{fill:#2D2D2D;}
	.st10{fill:#DBDBDB;}
	.st11{fill:#B4E5B1;}
	.st12{fill:#53CCE0;}
	.st13{fill:#FF7B7B;}
	.st14{enable-background:new    ;}
	
		.st15{fill:none;stroke:#686868;stroke-width:2;stroke-linecap:round;stroke-linejoin:round;stroke-miterlimit:10;stroke-dasharray:7;}
	.st16{fill:none;stroke:#595959;stroke-width:5;stroke-linecap:round;stroke-linejoin:round;stroke-miterlimit:10;}
	.st17{fill:#4C4C4C;}
	.st18{fill:none;stroke:#55A33B;stroke-width:3;stroke-linecap:round;stroke-linejoin:round;stroke-miterlimit:10;}
	.st19{fill:#474A8A;}
</style>
<g id="back_screen_1_">
	<rect x="149" y="79" class="st0" width="173.5" height="157.1"/>
	<rect x="145" y="76.6" class="st1" width="177.5" height="30.1"/>
	<path class="st2" d="M319.7,236.1H149c-1.7,0-3-1.3-3-3V77.8c0-1.7,1.3-3,3-3h170.7c1.7,0,3,1.3,3,3v155.3
		C322.7,234.8,321.3,236.1,319.7,236.1z"/>
	<ellipse class="st0" cx="166.8" cy="90.5" rx="4.2" ry="4"/>
	<ellipse class="st0" cx="181.9" cy="90.5" rx="4.2" ry="4"/>
	<ellipse class="st0" cx="196.2" cy="90.5" rx="4.2" ry="4"/>
	<g>
		<rect x="158" y="121" class="st3" width="102.7" height="7.2"/>
		<rect x="158" y="134" class="st3" width="102.7" height="7.2"/>
		<rect x="158" y="155.5" class="st3" width="102.7" height="54.8"/>
	</g>
</g>
<g id="back_screen">
	<rect x="464" y="17.7" class="st0" width="179.7" height="265.8"/>
	<rect x="463" y="20.4" class="st4" width="177.5" height="30.1"/>
	<path class="st2" d="M640.7,283.6H464c-1.7,0-3-1.3-3-3V20.7c0-1.7,1.3-3,3-3h176.7c1.7,0,3,1.3,3,3v259.9
		C643.7,282.3,642.3,283.6,640.7,283.6z"/>
	<ellipse class="st0" cx="484.8" cy="34.3" rx="4.2" ry="4"/>
	<ellipse class="st0" cx="499.9" cy="34.3" rx="4.2" ry="4"/>
	<ellipse class="st0" cx="514.2" cy="34.3" rx="4.2" ry="4"/>
</g>
<path id="settings" class="st4" d="M587.7,184.3c10.3,0.2,18.5,8.6,18.5,19c-0.2,10.3-8.6,18.5-19,18.5c-4.4,0-8.3-1.6-11.6-4.2
	l0.2,30.1c0.5,0.2,1,0.3,1.4,0.4c0.5,0.1,0.9-0.1,1.3-0.4l5.6-8c0.3-0.3,0.5-0.5,1-0.5h3.7c0.4,0,0.7,0.2,0.9,0.5l5.8,8.1
	c0.3,0.3,0.7,0.5,1.1,0.5c6.8-0.9,14.1-5.3,16.3-6.6c0.4-0.3,0.5-0.7,0.5-1.1l-1.5-9.5c-0.1-0.4,0.1-0.7,0.3-1l2.6-2.7
	c0.3-0.3,0.7-0.4,1.1-0.4l9.6,2c0.5,0.1,0.9-0.1,1.3-0.4c4.3-6.1,6.6-13.9,7.2-16.4c0.1-0.5-0.1-0.9-0.4-1.3l-8.4-5.9
	c-0.3-0.2-0.5-0.5-0.5-0.9v-3.9c0-0.4,0.2-0.8,0.5-1l8.5-5.3c0.4-0.3,0.7-0.9,0.5-1.4c-2.7-9.7-5.9-14.7-7-16.3
	c-0.3-0.4-0.7-0.5-1.1-0.5l-9.3,1.6c-0.4,0.1-0.8-0.1-1.1-0.4l-2.9-3.2c-0.3-0.3-0.3-0.7-0.4-1.1l2-8.7c0.1-0.5-0.1-1-0.5-1.3
	c-7.8-4.9-14.4-6.5-16.5-7c-0.4-0.1-0.9,0.1-1.2,0.5l-5.6,7.8c-0.2,0.3-0.5,0.5-0.9,0.5h-3.5c-0.4,0-0.7-0.2-1-0.5l-5.9-8.1
	c-0.3-0.4-0.7-0.5-1.1-0.5c-0.9,0.1-1.9,0.4-2.7,0.5l0.3,33C578.9,185.9,583.1,184.2,587.7,184.3z"/>
<g>
	<path class="st5" d="M370.9,97.5h-2.6v-8.1h2.6c1.6,0,3.1-1,3.7-2.5v-0.1c0.6-1.5,0.3-3.2-0.9-4.4l-1.8-1.8l5.7-5.7l1.8,1.8
		c1.2,1.2,2.9,1.5,4.4,0.9h0.1c1.5-0.6,2.5-2.1,2.5-3.7v-2.6h8.1V74c0,1.6,1,3.1,2.5,3.7h0.1c1.5,0.6,3.2,0.3,4.4-0.9l1.8-1.8
		l5.7,5.7l-1.8,1.8c-1.2,1.2-1.5,2.9-0.9,4.4V87c0.6,1.5,2.1,2.5,3.7,2.5h2.6v8.1H410c-1.6,0-3.1,1-3.7,2.5v0.1
		c-0.6,1.5-0.3,3.2,0.9,4.4l1.8,1.8l-5.7,5.7l-1.8-1.8c-1.2-1.2-2.9-1.5-4.4-0.9H397c-1.5,0.6-2.5,2.1-2.5,3.7v2.6h-8.1v-2.6
		c0-1.6-1-3.1-2.5-3.7h-0.1c-1.5-0.6-3.2-0.3-4.4,0.9l-1.8,1.8l-5.7-5.7l1.8-1.8c1.2-1.2,1.5-2.9,0.9-4.4v-0.1
		C374,98.5,372.5,97.5,370.9,97.5z"/>
	<path class="st5" d="M397.5,93.5c0,0.6-0.1,1.2-0.2,1.8c-0.2,0.6-0.4,1.2-0.7,1.7c-0.6,1.1-1.5,2-2.6,2.6c-0.5,0.3-1.1,0.5-1.7,0.7
		s-1.2,0.2-1.8,0.2s-1.2-0.1-1.8-0.2c-0.6-0.2-1.2-0.4-1.7-0.7c-1.1-0.6-2-1.5-2.6-2.6c-0.3-0.5-0.5-1.1-0.7-1.7s-0.2-1.2-0.2-1.8
		c0-0.6,0.1-1.2,0.2-1.8c0.2-0.6,0.4-1.2,0.7-1.7c0.6-1.1,1.5-2,2.6-2.6c0.5-0.3,1.1-0.5,1.7-0.7s1.2-0.2,1.8-0.2s1.2,0.1,1.8,0.2
		c0.6,0.2,1.2,0.4,1.7,0.7c1.1,0.6,2,1.5,2.6,2.6c0.3,0.5,0.5,1.1,0.7,1.7C397.4,92.3,397.5,92.9,397.5,93.5z"/>
</g>
<g id="laptop">
	<rect x="241.6" y="104.2" class="st6" width="329.4" height="219.3"/>
	<polyline id="XMLID_8_" class="st7" points="563.3,125.9 563.3,287.2 268.5,287.2 268.5,108 563.3,108 563.3,125.9 	"/>
	<g id="XMLID_1_">
		<path class="st8" d="M573.7,323.3H238.2V111.8c0-6,4.9-10.9,10.9-10.9h313.6c6,0,10.9,4.9,10.9,10.9L573.7,323.3L573.7,323.3z"/>
		<polygon class="st9" points="207.8,330.2 605.4,330.2 601.7,345.1 213,345.1 		"/>
	</g>
	<g id="line">
		<rect x="258.1" y="128.2" class="st10" width="35.3" height="5.3"/>
		<rect x="296.5" y="128.2" class="st11" width="156.6" height="5.3"/>
		<rect x="456.8" y="128.2" class="st12" width="35.3" height="5.3"/>
		<rect x="258.1" y="142.1" class="st13" width="39" height="5.3"/>
		<rect x="300.6" y="142.1" class="st11" width="173" height="5.3"/>
		<rect x="477.7" y="142.1" class="st12" width="39" height="5.3"/>
		<rect x="258.1" y="157.1" class="st10" width="35.3" height="5.3"/>
		<rect x="296.5" y="157.1" class="st11" width="156.6" height="5.3"/>
		<rect x="456.8" y="157.1" class="st12" width="35.3" height="5.3"/>
	</g>
	<g id="line_1_">
		<rect x="258.1" y="250.9" class="st13" width="39" height="5.3"/>
		<rect x="300.6" y="250.9" class="st11" width="95.1" height="5.3"/>
		<rect x="398" y="250.9" class="st12" width="21.4" height="5.3"/>
		<rect x="258.1" y="265.8" class="st10" width="35.3" height="5.3"/>
		<rect x="296.5" y="265.8" class="st11" width="156.6" height="5.3"/>
		<rect x="456.8" y="265.8" class="st12" width="35.3" height="5.3"/>
		<rect x="258.1" y="280.8" class="st10" width="35.3" height="5.3"/>
		<rect x="296.5" y="280.8" class="st11" width="156.6" height="5.3"/>
		<rect x="456.8" y="280.8" class="st12" width="35.3" height="5.3"/>
		<rect x="258.1" y="294.7" class="st13" width="39" height="5.3"/>
		<rect x="300.6" y="294.7" class="st11" width="189.3" height="5.3"/>
		<rect x="494.3" y="294.7" class="st12" width="42.6" height="5.3"/>
	</g>
</g>
<g class="st14">
	<path class="st0" d="M276.8,185c0,2.4-1.5,4.3-3.9,4.9c2.9,0.5,4.7,2.7,4.7,5.6c0,3.8-3.1,6.1-8.2,6.1h-10.1v-22.2h9.9
		C273.9,179.4,276.8,181.6,276.8,185z M272.5,185.7c0-1.7-1.3-2.7-3.5-2.6h-5.4v5.4h5.4C271.1,188.5,272.5,187.5,272.5,185.7z
		 M273.2,195c0-1.8-1.6-2.9-4.3-2.9h-5.4v5.9h5.4C271.6,198,273.2,196.9,273.2,195z"/>
	<path class="st0" d="M291.6,201.6v-2.1c-1.2,1.5-3.1,2.3-5.5,2.3c-3.6,0-5.9-2.3-5.9-5.3c0-3.1,2.3-5.1,6.4-5.1h4.9V191
		c0-2-1.3-3.1-3.8-3.1c-1.6,0-3.3,0.5-5,1.6l-1.5-2.9c2.4-1.4,4.3-2.1,7.5-2.1c4.4,0,6.9,2.3,7,6l0,11.1H291.6z M291.6,195.7v-1.5
		h-4.3c-2.2,0-3.2,0.6-3.2,2.1c0,1.4,1.1,2.3,3,2.3C289.5,198.6,291.4,197.4,291.6,195.7z"/>
	<path class="st0" d="M307.6,188.1c-2.7,0-4.6,2-4.6,5c0,3,1.9,5.1,4.6,5.1c2,0,3.6-0.7,4.6-2l2.6,2.1c-1.5,2.2-4,3.4-7.4,3.4
		c-5.1,0-8.6-3.5-8.6-8.6c0-5.2,3.5-8.7,8.6-8.7c3.1,0,5.6,1.1,7.1,3.1L312,190C310.9,188.8,309.4,188.1,307.6,188.1z"/>
	<path class="st0" d="M325.1,194.2l-2.6,2.7v4.7h-4.1v-23.5h4.1v13.6l7-7h4.8l-6.3,6.5l6.7,10.4h-4.9L325.1,194.2z"/>
	<path class="st0" d="M344.7,190.5v2.9h-8v-2.9H344.7z"/>
	<path class="st0" d="M364.3,194.6h-12.5c0.5,2.4,2.4,3.9,4.9,3.9c1.7,0,3.4-0.7,4.6-1.9l2.2,2.3c-1.7,1.8-4.2,2.9-7.1,2.9
		c-5.3,0-8.7-3.5-8.7-8.6c0-5.2,3.6-8.7,8.6-8.7C362.2,184.5,364.7,188.4,364.3,194.6z M360.6,191.8c-0.1-2.5-1.8-4.1-4.3-4.1
		c-2.4,0-4.2,1.6-4.5,4.1H360.6z"/>
	<path class="st0" d="M384.4,191v10.6h-4.2v-9.4c0-2.4-1.4-3.8-3.8-3.8c-2.8,0-4.4,2.1-4.4,4.9v8.3h-4.1v-17h4.1v3.2
		c1.2-2.3,3.3-3.3,6.1-3.3C382,184.5,384.4,187,384.4,191z"/>
	<path class="st0" d="M405.4,178.1v23.5h-4.1v-2.7c-1.2,1.9-3.2,2.9-5.7,2.9c-4.9,0-8.1-3.6-8.1-8.7c0-5.1,3.2-8.6,8-8.6
		c2.6,0,4.6,1,5.8,2.9v-9.4H405.4z M401.3,193.2c0-3-2-5.2-4.8-5.2c-2.8,0-4.8,2.2-4.8,5.2c0,3,2,5.2,4.8,5.2
		C399.3,198.4,401.3,196.2,401.3,193.2z"/>
</g>
<g class="st14">
	<path class="st0" d="M280.1,221.6c0,6.5-4.9,11.1-11.7,11.1h-9.1v-22.2h9.2C275.2,210.5,280.1,215.1,280.1,221.6z M275.8,221.6
		c0-4.3-3.1-7.4-7.3-7.4h-4.9v14.7h5.1C272.7,228.9,275.8,225.9,275.8,221.6z"/>
	<path class="st0" d="M298.8,225.6h-12.5c0.5,2.4,2.4,3.9,4.9,3.9c1.7,0,3.4-0.7,4.6-1.9l2.2,2.3c-1.7,1.8-4.2,2.9-7.1,2.9
		c-5.3,0-8.7-3.5-8.7-8.6c0-5.2,3.6-8.7,8.6-8.7C296.7,215.6,299.3,219.5,298.8,225.6z M295.1,222.9c-0.1-2.5-1.8-4.1-4.3-4.1
		c-2.4,0-4.2,1.6-4.5,4.1H295.1z"/>
	<path class="st0" d="M303.5,215.7l4.4,12.9l4.3-12.9h4.2l-6.5,17h-4.2l-6.5-16.9L303.5,215.7z"/>
	<path class="st0" d="M333.4,225.6h-12.5c0.5,2.4,2.4,3.9,4.9,3.9c1.7,0,3.4-0.7,4.6-1.9l2.2,2.3c-1.7,1.8-4.2,2.9-7.1,2.9
		c-5.3,0-8.7-3.5-8.7-8.6c0-5.2,3.6-8.7,8.6-8.7C331.3,215.6,333.8,219.5,333.4,225.6z M329.7,222.9c-0.1-2.5-1.8-4.1-4.3-4.1
		c-2.4,0-4.2,1.6-4.5,4.1H329.7z"/>
	<path class="st0" d="M341.3,209.1v23.5h-4.1v-23.5H341.3z"/>
	<path class="st0" d="M362.9,224.2c0,5.2-3.6,8.7-8.9,8.7c-5.4,0-9-3.5-9-8.7c0-5.1,3.6-8.6,9-8.6
		C359.3,215.6,362.9,219,362.9,224.2z M349.2,224.2c0,3,2,5.1,4.8,5.1c2.8,0,4.8-2.1,4.8-5.1s-2-5.1-4.8-5.1
		C351.2,219.1,349.2,221.2,349.2,224.2z"/>
	<path class="st0" d="M384.5,224.3c0,5.1-3.1,8.6-8,8.6c-2.6,0-4.5-1-5.8-2.9v8.9h-4.1v-23.1h4.1v2.8c1.2-1.9,3.2-2.9,5.7-2.9
		C381.3,215.6,384.5,219.1,384.5,224.3z M380.3,224.1c0-3-2-5.1-4.8-5.1c-2.8,0-4.8,2.1-4.8,5.1c0,3,2,5.1,4.8,5.1
		C378.4,229.3,380.3,227.2,380.3,224.1z"/>
	<path class="st0" d="M416.5,222.1v10.6h-4.2v-9.4c0-2.4-1.4-3.9-3.7-3.9c-2.7,0.1-4.3,2.1-4.3,4.9v8.4h-4.2v-9.4
		c0-2.4-1.4-3.9-3.7-3.9c-2.7,0.1-4.3,2.1-4.3,4.9v8.4h-4.1v-17h4.1v3.1c1.2-2.3,3.3-3.3,6-3.3c3,0,5,1.5,5.8,4.1
		c1.1-2.8,3.3-4,6.3-4.1C414.2,215.6,416.5,218.1,416.5,222.1z"/>
	<path class="st0" d="M436.3,225.6h-12.5c0.5,2.4,2.4,3.9,4.9,3.9c1.7,0,3.4-0.7,4.6-1.9l2.2,2.3c-1.7,1.8-4.2,2.9-7.1,2.9
		c-5.3,0-8.7-3.5-8.7-8.6c0-5.2,3.6-8.7,8.6-8.7C434.1,215.6,436.7,219.5,436.3,225.6z M432.6,222.9c-0.1-2.5-1.8-4.1-4.3-4.1
		c-2.4,0-4.2,1.6-4.5,4.1H432.6z"/>
	<path class="st0" d="M456.4,222.1v10.6h-4.2v-9.4c0-2.4-1.4-3.8-3.8-3.8c-2.8,0-4.4,2.1-4.4,4.9v8.3h-4.1v-17h4.1v3.2
		c1.2-2.3,3.3-3.3,6.1-3.3C454,215.6,456.4,218.1,456.4,222.1z"/>
	<path class="st0" d="M470.9,231.6c-1.3,0.8-2.8,1.2-4.2,1.2c-2.8,0-5-1.6-5-5.1v-8.4h-2.4l0-3h2.4v-4.7h4.1v4.7h4.9v3h-4.9v7.6
		c0,1.6,0.7,2.2,1.8,2.2c0.7,0,1.5-0.3,2.4-0.7L470.9,231.6z"/>
</g>
<line class="st15" x1="533" y1="-6" x2="533" y2="14.7"/>
<line class="st15" x1="321" y1="-23.7" x2="515.7" y2="-23.7"/>
<polyline class="st15" points="232.5,-6 177.7,-6 177.7,71.3 "/>
<line class="st15" x1="174" y1="242.3" x2="174" y2="265.8"/>
<line class="st15" x1="196.2" y1="290.7" x2="232.5" y2="290.7"/>
<g>
	<path class="st16" d="M154.5,294.7h-2.6v-8.1h2.6c1.6,0,3.1-1,3.7-2.5V284c0.6-1.5,0.3-3.2-0.9-4.4l-1.8-1.8l5.7-5.7l1.8,1.8
		c1.2,1.2,2.9,1.5,4.4,0.9h0.1c1.5-0.6,2.5-2.1,2.5-3.7v-2.6h8.1v2.6c0,1.6,1,3.1,2.5,3.7h0.1c1.5,0.6,3.2,0.3,4.4-0.9l1.8-1.8
		l5.7,5.7l-1.8,1.8c-1.2,1.2-1.5,2.9-0.9,4.4v0.1c0.6,1.5,2.1,2.5,3.7,2.5h2.6v8.1h-2.6c-1.6,0-3.1,1-3.7,2.5v0.1
		c-0.6,1.5-0.3,3.2,0.9,4.4l1.8,1.8l-5.7,5.7l-1.8-1.8c-1.2-1.2-2.9-1.5-4.4-0.9h-0.1c-1.5,0.6-2.5,2.1-2.5,3.7v2.6H170v-2.6
		c0-1.6-1-3.1-2.5-3.7h-0.1c-1.5-0.6-3.2-0.3-4.4,0.9l-1.8,1.8l-5.7-5.7l1.8-1.8c1.2-1.2,1.5-2.9,0.9-4.4v-0.1
		C157.6,295.7,156.1,294.7,154.5,294.7z"/>
	<path class="st16" d="M181.1,290.7c0,0.6-0.1,1.2-0.2,1.8c-0.2,0.6-0.4,1.2-0.7,1.7c-0.6,1.1-1.5,2-2.6,2.6
		c-0.5,0.3-1.1,0.5-1.7,0.7s-1.2,0.2-1.8,0.2s-1.2-0.1-1.8-0.2c-0.6-0.2-1.2-0.4-1.7-0.7c-1.1-0.6-2-1.5-2.6-2.6
		c-0.3-0.5-0.5-1.1-0.7-1.7s-0.2-1.2-0.2-1.8c0-0.6,0.1-1.2,0.2-1.8c0.2-0.6,0.4-1.2,0.7-1.7c0.6-1.1,1.5-2,2.6-2.6
		c0.5-0.3,1.1-0.5,1.7-0.7s1.2-0.2,1.8-0.2s1.2,0.1,1.8,0.2c0.6,0.2,1.2,0.4,1.7,0.7c1.1,0.6,2,1.5,2.6,2.6c0.3,0.5,0.5,1.1,0.7,1.7
		C181,289.4,181.1,290,181.1,290.7z"/>
</g>
<polyline class="st15" points="329.9,8.9 390.4,8.9 390.4,67.7 "/>
<path class="st17" d="M316.4-17.6c0.7-1.4,1-3.1,1-4.8c0-7.4-6.8-13.4-15-13.4c-3.1,0-6,0.8-8.3,2.2c-4.3-6.6-12.4-11.2-21.6-11.2
	c-13.8,0-25,10-25,22.3c0,0.4,0,0.8,0,1.2c-8.7,2.7-15,10.2-15,19c0,11.1,10,20.1,22.5,20.1h57.6c11.1,0,20.1-7.9,20.1-17.8
	C332.3-8.8,325.5-15.9,316.4-17.6z"/>
<g>
	<path class="st18" d="M196.2,44.2c0,1.4,0.6,2.7,1.7,3.8c2.2,2.3,6.2,3.8,10.9,3.8s8.7-1.5,10.9-3.8c1.1-1.1,1.7-2.4,1.7-3.8"/>
	<path class="st18" d="M196.2,29.1c0,1.4,0.6,2.7,1.7,3.8c2.2,2.3,6.2,3.8,10.9,3.8s8.7-1.5,10.9-3.8c1.1-1.1,1.7-2.4,1.7-3.8"/>
	<ellipse class="st18" cx="208.8" cy="21.5" rx="12.6" ry="7.6"/>
	<path class="st18" d="M196.2,36.6c0,1.4,0.6,2.7,1.7,3.8c2.2,2.3,6.2,3.8,10.9,3.8s8.7-1.5,10.9-3.8c1.1-1.1,1.7-2.4,1.7-3.8"/>
	<polyline class="st18" points="221.4,21.5 221.4,29.1 221.4,36.6 221.4,44.2 	"/>
	<polyline class="st18" points="196.2,21.5 196.2,29.1 196.2,36.6 196.2,44.2 	"/>
</g>
<g id="globe_3_">
	<circle class="st18" cx="533" cy="-23.7" r="17.3"/>
	<path class="st18" d="M518.6-14c3.1-1.9,25.6-1.9,28.7,0"/>
	<path class="st18" d="M518-32.3c3,2,27.1,2,30.1,0"/>
	<path class="st18" d="M541.3-23.7c0,9.6-6,17.3-8.3,17.3s-8.3-7.8-8.3-17.3s6-17.3,8.3-17.3S541.3-33.2,541.3-23.7z"/>
	<line class="st18" x1="515.7" y1="-22.9" x2="550.3" y2="-22.9"/>
</g>
<polyline class="st15" points="605.4,287.2 605.4,310.3 581,310.3 "/>
<g id="Php_icon">
	<g id="XMLID_24_">
		<path id="XMLID_30_" class="st19" d="M183,179.4c1.4,0,2.3,0.2,2.7,0.8c0.4,0.5,0.6,1.4,0.3,2.6c-0.2,1.3-0.7,2.2-1.5,2.7
			c-0.7,0.5-1.8,0.8-3.3,0.8H179l1.3-6.9L183,179.4L183,179.4z M174.2,193.4h3.6l0.9-4.4h3.1c1.4,0,2.5-0.2,3.4-0.4s1.7-0.8,2.4-1.5
			c0.6-0.5,1.1-1.2,1.5-1.8c0.4-0.7,0.6-1.4,0.8-2.2c0.4-1.9,0.1-3.5-0.9-4.6s-2.5-1.7-4.6-1.7h-7L174.2,193.4z"/>
		<path id="XMLID_26_" class="st19" d="M192.5,172.4h3.6l-0.9,4.4h3.2c2,0,3.4,0.3,4.1,1.1c0.8,0.7,1,1.8,0.7,3.4l-1.5,7.7H198
			l1.4-7.3c0.2-0.8,0.1-1.4-0.2-1.7s-0.9-0.4-1.8-0.4h-2.9l-1.9,9.5H189L192.5,172.4z"/>
		<path id="XMLID_25_" class="st19" d="M211.2,179.4c1.4,0,2.3,0.2,2.7,0.8c0.4,0.5,0.6,1.4,0.3,2.6c-0.2,1.3-0.7,2.2-1.5,2.7
			c-0.7,0.5-1.8,0.8-3.3,0.8h-2.2l1.3-6.9L211.2,179.4L211.2,179.4z M202.4,193.4h3.6l0.9-4.4h3.1c1.4,0,2.5-0.2,3.4-0.4
			c0.9-0.3,1.7-0.8,2.4-1.5c0.6-0.5,1.1-1.2,1.5-1.8c0.4-0.7,0.6-1.4,0.8-2.2c0.4-1.9,0.1-3.5-0.9-4.6s-2.5-1.7-4.6-1.7h-7
			L202.4,193.4z"/>
	</g>
</g>
<path id="XMLID_23_" d="M584.4,88.5l4.9-3c0.9,1.7,1.8,3.1,3.8,3.1s3.2-0.8,3.2-3.8V64.4h6v20.4c0,6.2-3.6,9-8.9,9
	C588.5,94,585.8,91.5,584.4,88.5"/>
<path id="XMLID_22_" d="M605.5,87.8l4.9-2.8c1.3,2.1,3,3.6,5.9,3.6c2.5,0,4.1-1.2,4.1-3c0-2.1-1.6-2.8-4.4-4l-1.5-0.6
	c-4.3-1.8-7.2-4.1-7.2-9c0-4.5,3.4-7.9,8.8-7.9c3.8,0,6.5,1.3,8.5,4.8l-4.7,3c-1-1.8-2.1-2.6-3.8-2.6c-1.8,0-2.9,1.1-2.9,2.6
	c0,1.8,1.1,2.5,3.7,3.6l1.5,0.6c5.1,2.2,8,4.4,8,9.4c0,5.4-4.2,8.3-9.9,8.3C610.9,94,607.3,91.3,605.5,87.8"/>
</svg>
